<?xml version="1.0" encoding="UTF-8"?>
<svg id="Layer_1" xmlns="http://www.w3.org/2000/svg" xmlns:xlink="http://www.w3.org/1999/xlink" version="1.1" viewBox="0 0 640 180">
  <!-- Generator: Adobe Illustrator 30.1.0, SVG Export Plug-In . SVG Version: 2.1.1 Build 136)  -->
  <defs>
    <style>
      .st0 {
        fill: url(#linear-gradient2);
      }

      .st1 {
        fill: url(#linear-gradient1);
      }

      .st2 {
        fill: url(#linear-gradient);
      }

      .st3 {
        fill: #f5f5f5;
      }
    </style>
    <linearGradient id="linear-gradient" x1="103" y1="1883.4" x2="103" y2="1768.7" gradientTransform="translate(0 -1736)" gradientUnits="userSpaceOnUse">
      <stop offset="0" stop-color="#7b5cf5"/>
      <stop offset=".5" stop-color="#38bdf8"/>
      <stop offset="1" stop-color="#c4ff40"/>
    </linearGradient>
    <linearGradient id="linear-gradient1" x1="45.7" y1="1826" x2="45.7" y2="1883.3" gradientTransform="translate(0 -1736)" gradientUnits="userSpaceOnUse">
      <stop offset="0" stop-color="#38bdf8"/>
      <stop offset="1" stop-color="#c4ff40"/>
    </linearGradient>
    <linearGradient id="linear-gradient2" x1="45.7" y1="1768.7" x2="45.7" y2="1826" gradientTransform="translate(0 -1736)" gradientUnits="userSpaceOnUse">
      <stop offset="0" stop-color="#7b5cf5"/>
      <stop offset="1" stop-color="#38bdf8"/>
    </linearGradient>
  </defs>
  <g>
    <path class="st3" d="M186.3,147.3c-8.1,0-15.4-1.6-21.7-4.9-6.4-3.3-11.6-8-15.3-14.2s-5.6-13.6-5.6-22.4v-2.6c0-8.7,1.9-16.1,5.6-22.5,3.7-6.2,8.7-10.9,15.3-14.2,6.4-3.3,13.6-4.9,21.7-4.9s15.3,1.6,21.8,4.9c6.4,3.3,11.5,8.1,15.3,14.2,3.7,6.2,5.6,13.7,5.6,22.5v2.6c0,8.7-1.9,16.1-5.6,22.4s-8.8,10.9-15.3,14.2c-6.4,3.3-13.7,4.9-21.8,4.9h0ZM186.3,129c6.3,0,11.6-2.1,15.7-6.1,4.1-4.1,6.2-9.9,6.2-17.6v-1.6c0-7.6-2.1-13.5-6.1-17.6-4.1-4.1-9.4-6.1-15.8-6.1s-11.6,2.1-15.7,6.1c-4.1,4.1-6.2,9.9-6.2,17.6v1.6c0,7.6,2.1,13.5,6.2,17.6,4.1,4.1,9.4,6.1,15.7,6.1h0Z"/>
    <path class="st3" d="M244.6,177.7V63.8h20.3v9.8h2.9c1.9-3.2,4.7-6,8.6-8.4s9.6-3.7,16.9-3.7,12.5,1.6,18.1,4.8c5.6,3.3,10,8,13.4,14.2s5.1,13.7,5.1,22.6v2.6c0,8.8-1.7,16.4-5.1,22.6-3.4,6.2-7.9,10.9-13.4,14.2-5.6,3.2-11.6,4.8-18.1,4.8s-9.1-.5-12.3-1.7c-3.4-1.1-6-2.6-8-4.4-2.1-1.7-3.6-3.6-4.8-5.5h-2.9v42h-20.7ZM287.1,129.3c6.4,0,11.8-2.1,15.9-6.1s6.3-10,6.3-17.9v-1.6c0-7.9-2.1-13.9-6.3-17.9-4.3-4.1-9.6-6.1-15.9-6.1s-11.7,2.1-15.8,6.1c-4.3,4.1-6.4,10-6.4,17.9v1.6c0,7.9,2.2,13.9,6.4,17.9,4.3,4.1,9.5,6.1,15.8,6.1h0Z"/>
    <path class="st3" d="M345.9,177.7V63.8h20.3v9.8h2.9c1.9-3.2,4.8-6,8.7-8.4s9.5-3.7,16.9-3.7,12.5,1.6,18.1,4.8c5.6,3.3,10,8,13.4,14.2s5,13.7,5,22.6v2.6c0,8.8-1.7,16.4-5,22.6-3.4,6.2-7.9,10.9-13.4,14.2-5.6,3.2-11.6,4.8-18.1,4.8s-9.1-.5-12.3-1.7c-3.4-1.1-6-2.6-8-4.4-2.1-1.7-3.6-3.6-4.8-5.5h-2.9v42h-20.8ZM388.4,129.3c6.4,0,11.8-2.1,15.9-6.1,4.1-4.1,6.3-10,6.3-17.9v-1.6c0-7.9-2.2-13.9-6.4-17.9-4.3-4.1-9.6-6.1-15.8-6.1s-11.7,2.1-15.8,6.1c-4.3,4.1-6.4,10-6.4,17.9v1.6c0,7.9,2.2,13.9,6.4,17.9,4.3,4.1,9.5,6.1,15.8,6.1h0Z"/>
    <path class="st3" d="M447.2,147.2V32.7h20.6v114.6h-20.6Z"/>
    <path class="st3" d="M524.5,147.3c-8.1,0-15.2-1.7-21.4-5.1-6.2-3.5-10.9-8.3-14.4-14.6-3.5-6.2-5.1-13.6-5.1-22.1v-2c0-8.5,1.6-15.9,5-22.1s8.1-11.1,14.2-14.6c6.1-3.4,13.2-5.1,21.3-5.1s14.9,1.7,20.8,5.3c5.9,3.6,10.5,8.5,13.7,14.7,3.3,6.3,4.9,13.5,4.9,21.8v7.1h-59.1c.2,5.6,2.3,10.1,6.2,13.6,3.9,3.5,8.7,5.2,14.4,5.2s10-1.2,12.8-3.8c2.7-2.5,4.8-5.2,6.2-8.3l16.8,8.8c-1.5,2.8-3.7,5.9-6.7,9.3-2.9,3.4-6.8,6.2-11.6,8.5s-10.9,3.5-18.3,3.5h.3,0ZM504.9,95h38c-.4-4.7-2.3-8.4-5.7-11.3-3.4-2.8-7.6-4.3-13-4.3s-10,1.4-13.3,4.3c-3.3,2.8-5.3,6.7-6,11.3h0Z"/>
    <path class="st3" d="M578.6,147.3v-81.2h20.3v9.2h2.9c1.2-3.3,3.2-5.7,6-7.2,2.7-1.5,6-2.3,9.7-2.3h9.8v18.3h-10.1c-5.2,0-9.6,1.4-13,4.1-3.4,2.8-5,7.1-5,12.9v46.1h-20.6Z"/>
  </g>
  <g>
    <path class="st2" d="M74.3,32.7v28.7l28.7,28.7-28.7,28.7v28.6c31.6,0,57.3-25.7,57.3-57.3s-25.7-57.3-57.3-57.3h0Z"/>
    <g>
      <polygon class="st1" points="17 147.3 74.3 147.3 74.3 118.7 45.7 90 17 118.7 17 147.3"/>
      <polygon class="st0" points="74.3 32.7 17 32.7 17 61.4 45.7 90 74.3 61.4 74.3 32.7"/>
    </g>
  </g>
</svg>